<?xml version="1.0" encoding="UTF-8" ?>
<!DOCTYPE svg PUBLIC "-//W3C//DTD SVG 1.1//EN" "http://www.w3.org/Graphics/SVG/1.1/DTD/svg11.dtd">
<svg width="142pt" height="88pt" viewBox="0 0 142 88" version="1.1" xmlns="http://www.w3.org/2000/svg">
<g id="#ffffffff">
</g>
<g id="#794005ff">
<path fill="#794005" opacity="1.00" d=" M 102.72 10.80 C 105.14 8.89 107.82 10.82 110.02 12.04 C 120.06 17.71 130.38 22.89 140.29 28.76 C 140.73 31.80 140.99 35.12 140.14 38.09 C 123.19 47.92 105.89 57.19 88.81 66.81 C 79.83 71.76 70.96 76.92 61.88 81.67 C 50.88 76.31 40.26 70.22 29.38 64.62 C 28.35 63.87 26.47 63.54 26.49 61.97 C 26.31 59.18 26.21 56.35 26.63 53.59 C 28.97 51.81 31.67 50.59 34.20 49.13 C 57.04 36.35 79.88 23.58 102.72 10.80 M 84.12 24.16 C 82.16 25.19 81.28 27.33 80.02 29.04 C 74.36 37.51 65.33 42.93 56.31 47.21 C 48.72 50.17 40.50 51.74 33.70 56.46 C 36.08 57.68 38.47 58.88 40.86 60.07 C 45.67 53.25 54.25 51.56 61.54 48.66 C 67.57 46.14 73.90 44.13 79.47 40.64 C 81.30 39.61 82.29 37.74 83.05 35.87 C 84.67 31.82 88.48 29.32 91.92 26.92 C 98.41 22.42 106.47 21.11 112.98 16.63 C 110.41 15.12 107.80 13.68 105.19 12.25 C 98.18 16.24 91.13 20.17 84.12 24.16 M 86.53 32.49 C 83.78 34.98 83.96 39.53 80.54 41.40 C 70.38 47.46 58.57 49.82 48.01 55.02 C 45.46 56.30 43.85 58.75 41.94 60.77 C 43.11 61.40 44.30 62.02 45.48 62.65 C 47.61 61.04 49.93 59.65 52.46 58.76 C 58.46 56.53 64.25 53.81 69.98 50.97 C 76.26 47.83 82.92 45.44 88.92 41.79 C 88.87 39.28 88.10 36.23 90.52 34.50 C 95.60 30.69 103.22 28.43 108.92 32.27 C 114.05 29.75 118.41 25.91 121.80 21.32 C 119.28 19.88 116.73 18.47 114.19 17.07 C 105.64 23.37 94.15 24.74 86.53 32.49 M 109.08 33.84 C 107.77 38.98 103.40 43.34 98.04 43.97 C 96.50 43.88 94.73 43.38 93.97 41.91 C 94.03 38.27 97.74 36.44 100.16 34.36 C 98.15 36.57 96.20 38.84 94.67 41.42 C 100.20 45.09 107.86 38.65 107.50 32.73 C 102.28 30.19 95.76 31.99 91.32 35.36 C 89.08 37.00 90.54 39.92 90.22 42.21 C 87.01 44.91 82.90 46.18 79.25 48.17 C 73.09 51.52 66.65 54.30 60.27 57.20 C 55.77 59.34 50.68 60.12 46.58 63.10 C 49.61 64.80 52.69 66.42 55.76 68.07 C 62.87 65.12 70.11 62.07 76.07 57.08 C 79.11 56.11 82.33 57.48 85.21 58.43 C 86.73 57.59 88.25 56.75 89.77 55.90 C 88.47 54.98 87.17 54.05 85.88 53.11 C 87.77 53.55 89.64 54.04 91.53 54.49 C 91.11 54.69 90.27 55.11 89.85 55.31 C 90.45 56.14 91.05 56.98 91.65 57.81 C 91.67 57.06 91.70 55.55 91.72 54.80 C 98.74 50.98 105.67 46.99 112.66 43.11 C 112.10 41.46 109.84 39.32 111.79 37.81 C 116.93 31.76 125.52 31.42 131.52 26.67 C 129.05 25.24 126.54 23.89 124.03 22.55 C 120.28 27.72 114.83 31.26 109.08 33.84 M 127.23 30.13 C 121.60 32.13 116.06 34.81 111.89 39.20 C 112.51 40.32 113.14 41.45 113.77 42.57 C 121.56 38.24 129.29 33.82 137.08 29.50 C 135.58 28.71 134.09 27.90 132.60 27.10 C 130.94 28.32 129.22 29.51 127.23 30.13 M 29.84 54.27 C 30.71 54.74 31.59 55.22 32.46 55.70 C 41.61 49.26 53.15 48.27 62.70 42.65 C 69.74 38.41 76.39 33.14 80.74 26.04 C 63.74 35.38 46.80 44.84 29.84 54.27 M 93.13 56.62 C 92.22 58.60 91.81 60.73 91.41 62.86 C 106.87 53.83 122.62 45.29 138.28 36.61 C 138.32 34.91 138.35 33.21 138.39 31.50 C 123.28 39.83 108.30 48.40 93.13 56.62 M 28.64 56.51 C 28.63 58.17 28.63 59.82 28.63 61.48 C 39.28 67.17 49.95 72.84 60.62 78.50 C 60.61 76.82 60.60 75.15 60.59 73.47 C 49.92 67.85 39.29 62.16 28.64 56.51 M 74.29 59.19 C 69.21 63.50 62.97 65.94 57.03 68.77 C 58.65 69.67 60.28 70.58 61.91 71.49 C 69.22 67.38 76.59 63.35 83.82 59.11 C 80.79 58.43 76.96 56.79 74.29 59.19 M 63.03 73.50 C 63.02 75.16 63.01 76.83 63.00 78.50 C 72.30 73.30 81.62 68.13 90.92 62.93 L 91.25 63.95 C 91.09 62.01 90.84 60.09 90.45 58.19 C 81.28 63.25 72.17 68.40 63.03 73.50 Z" />
</g>
</svg>
